<svg id="Layer_1" data-name="Layer 1" xmlns="http://www.w3.org/2000/svg" xmlns:xlink="http://www.w3.org/1999/xlink" viewBox="0 0 72 72"><defs><style>.cls-1,.cls-2,.cls-3{fill:none;}.cls-2,.cls-3{stroke:#000;}.cls-2{stroke-width:0.3px;}.cls-3{stroke-linecap:round;stroke-width:0.7px;}.cls-4{fill:#8bb473;}.cls-5{fill:url(#_619);}</style><pattern id="_619" data-name="619" width="53.58" height="53.58" patternTransform="translate(-5.72 -10.63)" patternUnits="userSpaceOnUse" viewBox="0 0 53.58 53.58"><rect class="cls-1" width="53.58" height="53.58"/><line class="cls-2" x1="4.12" y1="1.83" y2="1.83"/><line class="cls-2" x1="7.32" y1="1.83" x2="13.07" y2="1.83"/><line class="cls-2" x1="16.24" y1="1.83" x2="21.98" y2="1.83"/><line class="cls-2" x1="25.15" y1="1.83" x2="30.9" y2="1.83"/><line class="cls-2" x1="34.07" y1="1.83" x2="39.82" y2="1.83"/><line class="cls-2" x1="42.99" y1="1.83" x2="48.73" y2="1.83"/><line class="cls-2" x1="51.9" y1="1.83" x2="53.58" y2="1.83"/><line class="cls-2" x1="8.45" y1="4.97" x2="2.7" y2="4.97"/><line class="cls-2" x1="17.36" y1="4.97" x2="11.62" y2="4.97"/><line class="cls-2" x1="26.28" y1="4.97" x2="20.54" y2="4.97"/><line class="cls-2" x1="35.2" y1="4.97" x2="29.45" y2="4.97"/><line class="cls-2" x1="44.11" y1="4.97" x2="38.37" y2="4.97"/><line class="cls-2" x1="47.29" y1="4.97" x2="53.03" y2="4.97"/><line class="cls-2" x1="2.36" y1="7.93" y2="7.93"/><line class="cls-2" x1="11.31" y1="7.93" x2="5.57" y2="7.93"/><line class="cls-2" x1="14.49" y1="7.93" x2="20.23" y2="7.93"/><line class="cls-2" x1="23.4" y1="7.93" x2="29.15" y2="7.93"/><line class="cls-2" x1="32.32" y1="7.93" x2="38.06" y2="7.93"/><line class="cls-2" x1="41.24" y1="7.93" x2="46.98" y2="7.93"/><line class="cls-2" x1="50.15" y1="7.93" x2="53.58" y2="7.93"/><line class="cls-2" x1="7.65" y1="10.74" x2="1.91" y2="10.74"/><line class="cls-2" x1="16.57" y1="10.74" x2="10.82" y2="10.74"/><line class="cls-2" x1="25.49" y1="10.74" x2="19.74" y2="10.74"/><line class="cls-2" x1="34.4" y1="10.74" x2="28.66" y2="10.74"/><line class="cls-2" x1="43.32" y1="10.74" x2="37.57" y2="10.74"/><line class="cls-2" x1="52.23" y1="10.74" x2="46.49" y2="10.74"/><line class="cls-2" x1="2.05" y1="13.71" y2="13.71"/><line class="cls-2" x1="5.25" y1="13.71" x2="11" y2="13.71"/><line class="cls-2" x1="19.91" y1="13.71" x2="14.17" y2="13.71"/><line class="cls-2" x1="23.08" y1="13.71" x2="28.83" y2="13.71"/><line class="cls-2" x1="32" y1="13.71" x2="37.75" y2="13.71"/><line class="cls-2" x1="40.92" y1="13.71" x2="46.66" y2="13.71"/><line class="cls-2" x1="49.83" y1="13.71" x2="53.58" y2="13.71"/><line class="cls-2" y1="16.71" x2="-0.16" y2="16.71"/><line class="cls-2" x1="5.58" y1="16.71" y2="16.71"/><line class="cls-2" x1="14.5" y1="16.71" x2="8.75" y2="16.71"/><line class="cls-2" x1="23.42" y1="16.71" x2="17.67" y2="16.71"/><line class="cls-2" x1="26.59" y1="16.71" x2="32.33" y2="16.71"/><line class="cls-2" x1="35.5" y1="16.71" x2="41.25" y2="16.71"/><line class="cls-2" x1="44.42" y1="16.71" x2="50.17" y2="16.71"/><line class="cls-2" x1="53.34" y1="16.71" x2="53.58" y2="16.71"/><line class="cls-2" x1="2.52" y1="19.6" y2="19.6"/><line class="cls-2" x1="11.47" y1="19.6" x2="5.73" y2="19.6"/><line class="cls-2" x1="20.39" y1="19.6" x2="14.64" y2="19.6"/><line class="cls-2" x1="23.56" y1="19.6" x2="29.31" y2="19.6"/><line class="cls-2" x1="32.48" y1="19.6" x2="38.22" y2="19.6"/><line class="cls-2" x1="41.39" y1="19.6" x2="47.14" y2="19.6"/><line class="cls-2" x1="50.31" y1="19.6" x2="53.58" y2="19.6"/><line class="cls-2" x1="7.01" y1="22.79" x2="1.27" y2="22.79"/><line class="cls-2" x1="15.93" y1="22.79" x2="10.19" y2="22.79"/><line class="cls-2" x1="24.85" y1="22.79" x2="19.1" y2="22.79"/><line class="cls-2" x1="28.02" y1="22.79" x2="33.76" y2="22.79"/><line class="cls-2" x1="36.94" y1="22.79" x2="42.68" y2="22.79"/><line class="cls-2" x1="45.85" y1="22.79" x2="51.6" y2="22.79"/><line class="cls-2" x1="3.8" y1="25.76" y2="25.76"/><line class="cls-2" x1="12.75" y1="25.76" x2="7" y2="25.76"/><line class="cls-2" x1="15.92" y1="25.76" x2="21.66" y2="25.76"/><line class="cls-2" x1="24.84" y1="25.76" x2="30.58" y2="25.76"/><line class="cls-2" x1="39.5" y1="25.76" x2="33.75" y2="25.76"/><line class="cls-2" x1="48.41" y1="25.76" x2="42.67" y2="25.76"/><line class="cls-2" x1="51.59" y1="25.76" x2="53.58" y2="25.76"/><line class="cls-2" x1="2.54" y1="28.9" x2="8.29" y2="28.9"/><line class="cls-2" x1="17.21" y1="28.9" x2="11.46" y2="28.9"/><line class="cls-2" x1="26.12" y1="28.9" x2="20.38" y2="28.9"/><line class="cls-2" x1="29.29" y1="28.9" x2="35.04" y2="28.9"/><line class="cls-2" x1="38.21" y1="28.9" x2="43.96" y2="28.9"/><line class="cls-2" x1="47.13" y1="28.9" x2="52.87" y2="28.9"/><line class="cls-2" x1="3.32" y1="31.7" y2="31.7"/><line class="cls-2" x1="12.27" y1="31.7" x2="6.52" y2="31.7"/><line class="cls-2" x1="21.19" y1="31.7" x2="15.44" y2="31.7"/><line class="cls-2" x1="24.36" y1="31.7" x2="30.1" y2="31.7"/><line class="cls-2" x1="33.27" y1="31.7" x2="39.02" y2="31.7"/><line class="cls-2" x1="42.19" y1="31.7" x2="47.94" y2="31.7"/><line class="cls-2" x1="51.11" y1="31.7" x2="53.58" y2="31.7"/><line class="cls-2" x1="7.17" y1="34.84" x2="1.43" y2="34.84"/><line class="cls-2" x1="16.09" y1="34.84" x2="10.35" y2="34.84"/><line class="cls-2" x1="25.01" y1="34.84" x2="19.26" y2="34.84"/><line class="cls-2" x1="28.18" y1="34.84" x2="33.92" y2="34.84"/><line class="cls-2" x1="42.84" y1="34.84" x2="37.1" y2="34.84"/><line class="cls-2" x1="46.01" y1="34.84" x2="51.76" y2="34.84"/><line class="cls-2" x1="2.52" y1="37.81" y2="37.81"/><line class="cls-2" x1="5.73" y1="37.81" x2="11.47" y2="37.81"/><line class="cls-2" x1="14.64" y1="37.81" x2="20.39" y2="37.81"/><line class="cls-2" x1="23.56" y1="37.81" x2="29.31" y2="37.81"/><line class="cls-2" x1="32.48" y1="37.81" x2="38.22" y2="37.81"/><line class="cls-2" x1="41.39" y1="37.81" x2="47.14" y2="37.81"/><line class="cls-2" x1="50.31" y1="37.81" x2="53.58" y2="37.81"/><line class="cls-2" x1="6.38" y1="40.78" x2="0.63" y2="40.78"/><line class="cls-2" x1="15.29" y1="40.78" x2="9.55" y2="40.78"/><line class="cls-2" x1="24.21" y1="40.78" x2="18.47" y2="40.78"/><line class="cls-2" x1="33.13" y1="40.78" x2="27.38" y2="40.78"/><line class="cls-2" x1="36.3" y1="40.78" x2="42.04" y2="40.78"/><line class="cls-2" x1="50.96" y1="40.78" x2="45.22" y2="40.78"/><line class="cls-2" x1="3.48" y1="43.58" y2="43.58"/><line class="cls-2" x1="12.43" y1="43.58" x2="6.68" y2="43.58"/><line class="cls-2" x1="15.6" y1="43.58" x2="21.34" y2="43.58"/><line class="cls-2" x1="24.52" y1="43.58" x2="30.26" y2="43.58"/><line class="cls-2" x1="33.43" y1="43.58" x2="39.18" y2="43.58"/><line class="cls-2" x1="42.35" y1="43.58" x2="48.09" y2="43.58"/><line class="cls-2" x1="51.27" y1="43.58" x2="53.58" y2="43.58"/><line class="cls-2" x1="8.61" y1="46.71" x2="2.86" y2="46.71"/><line class="cls-2" x1="17.52" y1="46.71" x2="11.78" y2="46.71"/><line class="cls-2" x1="26.44" y1="46.71" x2="20.7" y2="46.71"/><line class="cls-2" x1="35.36" y1="46.71" x2="29.61" y2="46.71"/><line class="cls-2" x1="38.53" y1="46.71" x2="44.27" y2="46.71"/><line class="cls-2" x1="47.45" y1="46.71" x2="53.19" y2="46.71"/><line class="cls-2" y1="49.68" x2="5.07" y2="49.68"/><line class="cls-2" x1="8.28" y1="49.68" x2="14.02" y2="49.68"/><line class="cls-2" x1="17.19" y1="49.68" x2="22.94" y2="49.68"/><line class="cls-2" x1="26.11" y1="49.68" x2="31.85" y2="49.68"/><line class="cls-2" x1="35.03" y1="49.68" x2="40.77" y2="49.68"/><line class="cls-2" x1="43.94" y1="49.68" x2="49.69" y2="49.68"/><line class="cls-2" x1="52.86" y1="49.68" x2="53.58" y2="49.68"/><line class="cls-2" x1="8.93" y1="52.65" x2="3.18" y2="52.65"/><line class="cls-2" x1="17.84" y1="52.65" x2="12.1" y2="52.65"/><line class="cls-2" x1="26.76" y1="52.65" x2="21.01" y2="52.65"/><line class="cls-2" x1="35.68" y1="52.65" x2="29.93" y2="52.65"/><line class="cls-2" x1="44.59" y1="52.65" x2="38.85" y2="52.65"/><line class="cls-2" x1="53.51" y1="52.65" x2="47.76" y2="52.65"/><line class="cls-3" x1="5.76" y1="1.9" x2="5.76" y2="1.9"/><line class="cls-3" x1="14.73" y1="1.9" x2="14.73" y2="1.9"/><line class="cls-3" x1="23.65" y1="1.9" x2="23.65" y2="1.9"/><line class="cls-3" x1="32.59" y1="1.9" x2="32.59" y2="1.9"/><line class="cls-3" x1="41.48" y1="1.9" x2="41.48" y2="1.9"/><line class="cls-3" x1="50.43" y1="1.9" x2="50.43" y2="1.9"/><line class="cls-3" x1="1.06" y1="4.97" x2="1.06" y2="4.97"/><line class="cls-3" x1="10.04" y1="4.97" x2="10.04" y2="4.97"/><line class="cls-3" x1="18.95" y1="4.97" x2="18.95" y2="4.97"/><line class="cls-3" x1="27.9" y1="4.97" x2="27.9" y2="4.97"/><line class="cls-3" x1="36.78" y1="4.97" x2="36.78" y2="4.97"/><line class="cls-3" x1="45.73" y1="4.97" x2="45.73" y2="4.97"/><line class="cls-3" x1="4.03" y1="7.97" x2="4.03" y2="7.97"/><line class="cls-3" x1="13.01" y1="7.97" x2="13.01" y2="7.97"/><line class="cls-3" x1="21.93" y1="7.97" x2="21.93" y2="7.97"/><line class="cls-3" x1="30.87" y1="7.97" x2="30.87" y2="7.97"/><line class="cls-3" x1="39.76" y1="7.97" x2="39.76" y2="7.97"/><line class="cls-3" x1="48.7" y1="7.97" x2="48.7" y2="7.97"/><line class="cls-3" x1="0.39" y1="10.81" x2="0.39" y2="10.81"/><line class="cls-3" x1="9.37" y1="10.81" x2="9.37" y2="10.81"/><line class="cls-3" x1="18.29" y1="10.81" x2="18.29" y2="10.81"/><line class="cls-3" x1="27.23" y1="10.81" x2="27.23" y2="10.81"/><line class="cls-3" x1="36.12" y1="10.81" x2="36.12" y2="10.81"/><line class="cls-3" x1="45.06" y1="10.81" x2="45.06" y2="10.81"/><line class="cls-3" x1="3.62" y1="13.72" x2="3.62" y2="13.72"/><line class="cls-3" x1="12.59" y1="13.72" x2="12.59" y2="13.72"/><line class="cls-3" x1="21.51" y1="13.72" x2="21.51" y2="13.72"/><line class="cls-3" x1="30.45" y1="13.72" x2="30.45" y2="13.72"/><line class="cls-3" x1="39.34" y1="13.72" x2="39.34" y2="13.72"/><line class="cls-3" x1="48.29" y1="13.72" x2="48.29" y2="13.72"/><line class="cls-3" x1="7.17" y1="16.72" x2="7.17" y2="16.72"/><line class="cls-3" x1="16.15" y1="16.72" x2="16.15" y2="16.72"/><line class="cls-3" x1="25.06" y1="16.72" x2="25.06" y2="16.72"/><line class="cls-3" x1="34.01" y1="16.72" x2="34.01" y2="16.72"/><line class="cls-3" x1="42.89" y1="16.72" x2="42.89" y2="16.72"/><line class="cls-3" x1="51.84" y1="16.72" x2="51.84" y2="16.72"/><line class="cls-3" x1="4.06" y1="19.56" x2="4.06" y2="19.56"/><line class="cls-3" x1="13.04" y1="19.56" x2="13.04" y2="19.56"/><line class="cls-3" x1="21.95" y1="19.56" x2="21.95" y2="19.56"/><line class="cls-3" x1="30.9" y1="19.56" x2="30.9" y2="19.56"/><line class="cls-3" x1="39.78" y1="19.56" x2="39.78" y2="19.56"/><line class="cls-3" x1="48.73" y1="19.56" x2="48.73" y2="19.56"/><line class="cls-3" x1="8.65" y1="22.72" x2="8.65" y2="22.72"/><line class="cls-3" x1="17.62" y1="22.72" x2="17.62" y2="22.72"/><line class="cls-3" x1="26.54" y1="22.72" x2="26.54" y2="22.72"/><line class="cls-3" x1="35.48" y1="22.72" x2="35.48" y2="22.72"/><line class="cls-3" x1="44.37" y1="22.72" x2="44.37" y2="22.72"/><line class="cls-3" x1="53.32" y1="22.72" x2="53.32" y2="22.72"/><line class="cls-3" x1="5.34" y1="25.81" x2="5.34" y2="25.81"/><line class="cls-3" x1="14.32" y1="25.81" x2="14.32" y2="25.81"/><line class="cls-3" x1="23.23" y1="25.81" x2="23.23" y2="25.81"/><line class="cls-3" x1="32.18" y1="25.81" x2="32.18" y2="25.81"/><line class="cls-3" x1="41.06" y1="25.81" x2="41.06" y2="25.81"/><line class="cls-3" x1="50.01" y1="25.81" x2="50.01" y2="25.81"/><line class="cls-3" x1="9.76" y1="28.95" x2="9.76" y2="28.95"/><line class="cls-3" x1="1" y1="28.95" x2="1" y2="28.95"/><line class="cls-3" x1="18.73" y1="28.95" x2="18.73" y2="28.95"/><line class="cls-3" x1="27.65" y1="28.95" x2="27.65" y2="28.95"/><line class="cls-3" x1="36.59" y1="28.95" x2="36.59" y2="28.95"/><line class="cls-3" x1="45.48" y1="28.95" x2="45.48" y2="28.95"/><line class="cls-3" x1="4.96" y1="31.7" x2="4.96" y2="31.7"/><line class="cls-3" x1="13.93" y1="31.7" x2="13.93" y2="31.7"/><line class="cls-3" x1="22.85" y1="31.7" x2="22.85" y2="31.7"/><line class="cls-3" x1="31.79" y1="31.7" x2="31.79" y2="31.7"/><line class="cls-3" x1="40.68" y1="31.7" x2="40.68" y2="31.7"/><line class="cls-3" x1="49.63" y1="31.7" x2="49.63" y2="31.7"/><line class="cls-3" x1="8.56" y1="34.89" x2="8.56" y2="34.89"/><line class="cls-3" x1="17.54" y1="34.89" x2="17.54" y2="34.89"/><line class="cls-3" x1="26.45" y1="34.89" x2="26.45" y2="34.89"/><line class="cls-3" x1="35.4" y1="34.89" x2="35.4" y2="34.89"/><line class="cls-3" x1="44.28" y1="34.89" x2="44.28" y2="34.89"/><line class="cls-3" x1="53.23" y1="34.89" x2="53.23" y2="34.89"/><line class="cls-3" x1="4.14" y1="37.89" x2="4.14" y2="37.89"/><line class="cls-3" x1="13.12" y1="37.89" x2="13.12" y2="37.89"/><line class="cls-3" x1="22.04" y1="37.89" x2="22.04" y2="37.89"/><line class="cls-3" x1="30.98" y1="37.89" x2="30.98" y2="37.89"/><line class="cls-3" x1="39.87" y1="37.89" x2="39.87" y2="37.89"/><line class="cls-3" x1="48.81" y1="37.89" x2="48.81" y2="37.89"/><line class="cls-3" x1="7.89" y1="40.81" x2="7.89" y2="40.81"/><line class="cls-3" x1="16.87" y1="40.81" x2="16.87" y2="40.81"/><line class="cls-3" x1="25.79" y1="40.81" x2="25.79" y2="40.81"/><line class="cls-3" x1="34.73" y1="40.81" x2="34.73" y2="40.81"/><line class="cls-3" x1="43.62" y1="40.81" x2="43.62" y2="40.81"/><line class="cls-3" x1="52.56" y1="40.81" x2="52.56" y2="40.81"/><line class="cls-3" x1="5.06" y1="43.64" x2="5.06" y2="43.64"/><line class="cls-3" x1="14.04" y1="43.64" x2="14.04" y2="43.64"/><line class="cls-3" x1="22.95" y1="43.64" x2="22.95" y2="43.64"/><line class="cls-3" x1="31.9" y1="43.64" x2="31.9" y2="43.64"/><line class="cls-3" x1="40.78" y1="43.64" x2="40.78" y2="43.64"/><line class="cls-3" x1="49.73" y1="43.64" x2="49.73" y2="43.64"/><line class="cls-3" x1="1.23" y1="46.75" x2="1.23" y2="46.75"/><line class="cls-3" x1="10.2" y1="46.75" x2="10.2" y2="46.75"/><line class="cls-3" x1="19.12" y1="46.75" x2="19.12" y2="46.75"/><line class="cls-3" x1="28.06" y1="46.75" x2="28.06" y2="46.75"/><line class="cls-3" x1="36.95" y1="46.75" x2="36.95" y2="46.75"/><line class="cls-3" x1="45.9" y1="46.75" x2="45.9" y2="46.75"/><line class="cls-3" x1="6.64" y1="49.72" x2="6.64" y2="49.72"/><line class="cls-3" x1="15.62" y1="49.72" x2="15.62" y2="49.72"/><line class="cls-3" x1="24.54" y1="49.72" x2="24.54" y2="49.72"/><line class="cls-3" x1="33.48" y1="49.72" x2="33.48" y2="49.72"/><line class="cls-3" x1="42.37" y1="49.72" x2="42.37" y2="49.72"/><line class="cls-3" x1="51.31" y1="49.72" x2="51.31" y2="49.72"/><line class="cls-3" x1="1.48" y1="52.72" x2="1.48" y2="52.72"/><line class="cls-3" x1="10.45" y1="52.72" x2="10.45" y2="52.72"/><line class="cls-3" x1="19.37" y1="52.72" x2="19.37" y2="52.72"/><line class="cls-3" x1="28.31" y1="52.72" x2="28.31" y2="52.72"/><line class="cls-3" x1="37.2" y1="52.72" x2="37.2" y2="52.72"/><line class="cls-3" x1="46.15" y1="52.72" x2="46.15" y2="52.72"/></pattern></defs><title>MudSimple</title><rect class="cls-4" width="72" height="72"/><rect class="cls-5" width="72" height="72"/></svg>